<?xml version="1.0" encoding="UTF-8"?>
<svg width="563.5" height="551.92" version="1.0" viewBox="0 0 450.79805 441.53398" xmlns="http://www.w3.org/2000/svg">
 <g transform="matrix(.1 0 0 -.1 5.4631 492.69)">
  <path d="m2690 1480c-121-19-230-80-324-181l-55-60-54 54c-71 73-165 133-252 160-99 31-251 31-355-2-100-30-230-100-314-167-227-182-448-281-602-271-43 3-87 13-111 26-46 23-109 83-118 112-10 32 3 84 26 105 28 25 101 23 164-5 58-26 77-26 98-3 30 33 21 62-36 118-153 147-340 114-491-87-45-60-46-62-46-139 0-94 26-185 72-255 118-178 357-310 637-352 161-24 528-24 658 0 196 37 362 99 488 182 60 40 177 154 203 197 9 15 22 28 29 28 6 0 32-27 57-59 195-253 578-385 1061-368 398 15 625 91 813 271 106 102 162 224 162 357 0 55-5 72-29 110-40 63-142 156-198 182-104 47-226 20-322-71-34-32-41-46-41-76 0-56 31-66 110-36 75 28 143 32 165 9 25-24 34-81 20-115-20-48-88-101-152-120-100-29-236-3-389 74-66 33-237 147-319 213-64 51-233 134-310 153-82 19-179 26-245 16z"/>
 </g>
 <path d="m377.17 189.46v-95.371c-0.86414-49.372-22.865-64.156-47.278-74.993-63.309-20.262-121.31-26.601-193.19-8.1514-24.532 12.215-52.817 20.646-58.69 79.068v97.817c-1.8518 0.41806-1.0062 1.3432-3.4041 3.1265-0.18585 2.5292 0.42518 4.7398 1.7738 6.6552-0.16176 5.984-1.4106 6.5327-2.4454 8.1514l0.81514 17.933c79.863 19.438 169.38 31.726 307.31 8.1514l4.0757-21.194c-3.53-5.8619-7.0574-11.73-8.9665-21.194z"/>
 <path d="m73.935 206.57c-27.697-12.927-59.946-35.609-73.362-17.933-6.6952 43.072 47.067 37.022 71.732 54.614 103.92 29.032 206.37 24.068 308.12 3.2606 41.756-7.3349 73.648-18.898 70.102-45.648-15.26-19.272-40.912-2.176-64.396 7.3362l-312.2-1.6303z"/>
</svg>
